# xmcd
# Track frame offsets:
# 150
# 14829
# 31124
# 41603
# 57203
# 72183
# 87935
# 106579
# 119036
# 137701
# 149453
# 166805
# 186026
# 199530
# 217380
#
# Disc length: 3084 seconds
# Revision: 0
# Processed by: cddbd v1.4PL0 Copyright (c) Steve Scherf et al.
# Submitted via: VisiTrax 2.9.5.180 - For more info visit www.synapsa.com
#
DISCID=da0c0a0f
DTITLE=Crystal Gayle - Sings The Heart and Sould Of Hoagy Carmichel
DYEAR=1999
DGENRE=
TTITLE0=Heart And Soul
TTITLE1=Stardust
TTITLE2=In The Cool,Cool,Cool Of The Evening
TTITLE3=One Morning In May
TTITLE4=Lazybones
TTITLE5=Ole Buttermilk Sky
TTITLE6=Georgia On My Mind
TTITLE7=Two Sleepy People ( duet with Willie Nelson )
TTITLE8=I Get Along Without You Very Well
TTITLE9=Lazy River
TTITLE10=Rockin´Chair
TTITLE11=The Nearness Of You
TTITLE12=Small Fry
TTITLE13=Skylark
TTITLE14=Can´t Get Indiana Off My Mind
EXTD=
EXTT0=
EXTT1=
EXTT2=
EXTT3=
EXTT4=
EXTT5=
EXTT6=
EXTT7=
EXTT8=
EXTT9=
EXTT10=
EXTT11=
EXTT12=
EXTT13=
EXTT14=
PLAYORDER=
